<mxfile host="app.diagrams.net" modified="2023-06-15T23:16:05.619Z" agent="Mozilla/5.0 (X11; Linux x86_64; rv:109.0) Gecko/20100101 Firefox/113.0" etag="xbY0unImDoKdt0UMMG8e" version="21.2.9" type="device">
  <diagram name="Page-1" id="nW0zQwKshQojWD1jGtHU">
    <mxGraphModel dx="1434" dy="780" grid="1" gridSize="10" guides="1" tooltips="1" connect="1" arrows="1" fold="1" page="1" pageScale="1" pageWidth="850" pageHeight="1100" math="0" shadow="0">
      <root>
        <mxCell id="0" />
        <mxCell id="1" parent="0" />
        <mxCell id="kBIsP8xUcOTTKNcCYPv2-2" value="" style="rounded=0;whiteSpace=wrap;html=1;" parent="1" vertex="1">
          <mxGeometry x="220" y="130" width="500" height="230" as="geometry" />
        </mxCell>
        <mxCell id="eJNxwYqaqbKO4reTvLwO-16" style="edgeStyle=orthogonalEdgeStyle;rounded=0;orthogonalLoop=1;jettySize=auto;html=1;entryX=0;entryY=0.75;entryDx=0;entryDy=0;fillColor=#f8cecc;strokeColor=#b85450;strokeWidth=2;dashed=1;" parent="1" source="eJNxwYqaqbKO4reTvLwO-1" target="eJNxwYqaqbKO4reTvLwO-11" edge="1">
          <mxGeometry relative="1" as="geometry" />
        </mxCell>
        <mxCell id="eJNxwYqaqbKO4reTvLwO-1" value="AGV1" style="rounded=0;whiteSpace=wrap;html=1;" parent="1" vertex="1">
          <mxGeometry x="40" y="290" width="120" height="60" as="geometry" />
        </mxCell>
        <mxCell id="eJNxwYqaqbKO4reTvLwO-19" style="edgeStyle=orthogonalEdgeStyle;rounded=0;orthogonalLoop=1;jettySize=auto;html=1;entryX=0;entryY=0.75;entryDx=0;entryDy=0;fillColor=#fff2cc;strokeColor=#d6b656;strokeWidth=2;" parent="1" source="eJNxwYqaqbKO4reTvLwO-2" target="eJNxwYqaqbKO4reTvLwO-5" edge="1">
          <mxGeometry relative="1" as="geometry" />
        </mxCell>
        <mxCell id="eJNxwYqaqbKO4reTvLwO-2" value="Simulator" style="rounded=0;whiteSpace=wrap;html=1;" parent="1" vertex="1">
          <mxGeometry x="230" y="290" width="120" height="60" as="geometry" />
        </mxCell>
        <mxCell id="eJNxwYqaqbKO4reTvLwO-4" value="DB" style="shape=datastore;whiteSpace=wrap;html=1;" parent="1" vertex="1">
          <mxGeometry x="645" y="230" width="60" height="60" as="geometry" />
        </mxCell>
        <mxCell id="eJNxwYqaqbKO4reTvLwO-8" style="edgeStyle=orthogonalEdgeStyle;rounded=0;orthogonalLoop=1;jettySize=auto;html=1;entryX=0;entryY=0.5;entryDx=0;entryDy=0;fillColor=#d5e8d4;strokeColor=#82b366;strokeWidth=2;" parent="1" source="eJNxwYqaqbKO4reTvLwO-5" target="eJNxwYqaqbKO4reTvLwO-4" edge="1">
          <mxGeometry relative="1" as="geometry" />
        </mxCell>
        <mxCell id="eJNxwYqaqbKO4reTvLwO-5" value="Reciever" style="rounded=0;whiteSpace=wrap;html=1;" parent="1" vertex="1">
          <mxGeometry x="410" y="230" width="120" height="60" as="geometry" />
        </mxCell>
        <mxCell id="eJNxwYqaqbKO4reTvLwO-17" style="edgeStyle=orthogonalEdgeStyle;rounded=0;orthogonalLoop=1;jettySize=auto;html=1;entryX=0;entryY=0.25;entryDx=0;entryDy=0;fillColor=#fff2cc;strokeColor=#d6b656;strokeWidth=2;" parent="1" source="eJNxwYqaqbKO4reTvLwO-11" target="eJNxwYqaqbKO4reTvLwO-5" edge="1">
          <mxGeometry relative="1" as="geometry" />
        </mxCell>
        <mxCell id="eJNxwYqaqbKO4reTvLwO-11" value="AGV Coordinator" style="rounded=0;whiteSpace=wrap;html=1;" parent="1" vertex="1">
          <mxGeometry x="230" y="170" width="120" height="60" as="geometry" />
        </mxCell>
        <mxCell id="eJNxwYqaqbKO4reTvLwO-15" style="edgeStyle=orthogonalEdgeStyle;rounded=0;orthogonalLoop=1;jettySize=auto;html=1;fillColor=#f8cecc;strokeColor=#b85450;strokeWidth=2;dashed=1;" parent="1" source="eJNxwYqaqbKO4reTvLwO-12" target="eJNxwYqaqbKO4reTvLwO-11" edge="1">
          <mxGeometry relative="1" as="geometry" />
        </mxCell>
        <mxCell id="eJNxwYqaqbKO4reTvLwO-12" value="AGV2" style="rounded=0;whiteSpace=wrap;html=1;" parent="1" vertex="1">
          <mxGeometry x="40" y="170" width="120" height="60" as="geometry" />
        </mxCell>
        <mxCell id="eJNxwYqaqbKO4reTvLwO-14" style="edgeStyle=orthogonalEdgeStyle;rounded=0;orthogonalLoop=1;jettySize=auto;html=1;entryX=0;entryY=0.25;entryDx=0;entryDy=0;fillColor=#f8cecc;strokeColor=#b85450;strokeWidth=2;dashed=1;" parent="1" source="eJNxwYqaqbKO4reTvLwO-13" target="eJNxwYqaqbKO4reTvLwO-11" edge="1">
          <mxGeometry relative="1" as="geometry" />
        </mxCell>
        <mxCell id="eJNxwYqaqbKO4reTvLwO-13" value="AGVN" style="rounded=0;whiteSpace=wrap;html=1;" parent="1" vertex="1">
          <mxGeometry x="40" y="50" width="120" height="60" as="geometry" />
        </mxCell>
        <mxCell id="eJNxwYqaqbKO4reTvLwO-20" value="" style="endArrow=classic;html=1;rounded=0;fillColor=#f8cecc;strokeColor=#b85450;strokeWidth=2;dashed=1;" parent="1" edge="1">
          <mxGeometry width="50" height="50" relative="1" as="geometry">
            <mxPoint x="560" y="45" as="sourcePoint" />
            <mxPoint x="630" y="45" as="targetPoint" />
          </mxGeometry>
        </mxCell>
        <mxCell id="eJNxwYqaqbKO4reTvLwO-21" value="" style="endArrow=classic;html=1;rounded=0;fillColor=#fff2cc;strokeColor=#d6b656;strokeWidth=2;" parent="1" edge="1">
          <mxGeometry width="50" height="50" relative="1" as="geometry">
            <mxPoint x="560" y="74.66" as="sourcePoint" />
            <mxPoint x="630" y="74.66" as="targetPoint" />
          </mxGeometry>
        </mxCell>
        <mxCell id="eJNxwYqaqbKO4reTvLwO-22" value="5G Wifi" style="text;html=1;align=center;verticalAlign=middle;resizable=0;points=[];autosize=1;strokeColor=none;fillColor=none;" parent="1" vertex="1">
          <mxGeometry x="635" y="30" width="60" height="30" as="geometry" />
        </mxCell>
        <mxCell id="eJNxwYqaqbKO4reTvLwO-23" value="UDP/Json" style="text;html=1;align=center;verticalAlign=middle;resizable=0;points=[];autosize=1;strokeColor=none;fillColor=none;" parent="1" vertex="1">
          <mxGeometry x="635" y="60" width="80" height="30" as="geometry" />
        </mxCell>
        <mxCell id="8hP6NMzS2aRU1-y47p0W-1" value="" style="endArrow=classic;html=1;rounded=0;fillColor=#d5e8d4;strokeColor=#82b366;strokeWidth=2;" parent="1" edge="1">
          <mxGeometry width="50" height="50" relative="1" as="geometry">
            <mxPoint x="560" y="104.66" as="sourcePoint" />
            <mxPoint x="630" y="104.66" as="targetPoint" />
          </mxGeometry>
        </mxCell>
        <mxCell id="8hP6NMzS2aRU1-y47p0W-2" value="DATABASE API" style="text;html=1;align=center;verticalAlign=middle;resizable=0;points=[];autosize=1;strokeColor=none;fillColor=none;" parent="1" vertex="1">
          <mxGeometry x="635" y="90" width="110" height="30" as="geometry" />
        </mxCell>
        <mxCell id="8hP6NMzS2aRU1-y47p0W-3" value="Edge" style="text;html=1;align=center;verticalAlign=middle;resizable=0;points=[];autosize=1;strokeColor=none;fillColor=none;" parent="1" vertex="1">
          <mxGeometry x="220" y="130" width="50" height="30" as="geometry" />
        </mxCell>
        <mxCell id="dH_mUMCcRRAtVHNhpuTd-2" style="edgeStyle=orthogonalEdgeStyle;rounded=0;orthogonalLoop=1;jettySize=auto;html=1;entryX=0.5;entryY=0;entryDx=0;entryDy=0;startArrow=classic;startFill=1;fillColor=#d5e8d4;strokeColor=#82b366;strokeWidth=2;" edge="1" parent="1" source="dH_mUMCcRRAtVHNhpuTd-1" target="eJNxwYqaqbKO4reTvLwO-4">
          <mxGeometry relative="1" as="geometry" />
        </mxCell>
        <mxCell id="dH_mUMCcRRAtVHNhpuTd-1" value="Forecaster" style="rounded=0;whiteSpace=wrap;html=1;" vertex="1" parent="1">
          <mxGeometry x="410" y="150" width="120" height="60" as="geometry" />
        </mxCell>
      </root>
    </mxGraphModel>
  </diagram>
</mxfile>
